<svg width="200" height="50" viewBox="0 0 200 50" fill="none" xmlns="http://www.w3.org/2000/svg">
  <g>
    <path d="M18 8 C18 8 12 18 12 24 C12 30 18 34 24 34 C30 34 36 30 36 24 C36 18 30 8 30 8" stroke="#113D48" stroke-width="2" fill="none" stroke-linecap="round"/>
    <path d="M24 6 L24 30" stroke="#113D48" stroke-width="2" stroke-linecap="round"/>
    <path d="M20 14 L24 10 L28 14" stroke="#113D48" stroke-width="2" fill="none" stroke-linecap="round" stroke-linejoin="round"/>
    <path d="M8 38 C14 32 20 36 24 36 C28 36 34 32 40 38" stroke="#1CA8CB" stroke-width="2" fill="none" stroke-linecap="round"/>
    <path d="M4 44 C10 38 16 42 20 42 C24 42 30 38 36 44" stroke="#1CA8CB" stroke-width="1.5" fill="none" stroke-linecap="round" opacity="0.5"/>
  </g>
  <text x="48" y="24" font-family="Manrope, sans-serif" font-weight="700" font-size="20" fill="#113D48">Rhodos</text>
  <text x="48" y="42" font-family="Cormorant Garamond, Georgia, serif" font-weight="400" font-style="italic" font-size="14" fill="#1CA8CB" letter-spacing="2">YACHTS</text>
</svg>
